<svg width="24.000000" height="24.000000" viewBox="0 0 24 24" fill="none" xmlns="http://www.w3.org/2000/svg" xmlns:xlink="http://www.w3.org/1999/xlink">
	<desc>
			Created with Pixso.
	</desc>
	<defs>
		<clipPath id="clip55_353">
			<rect id="Quick View" width="24.000000" height="24.000000" fill="white" fill-opacity="0"/>
		</clipPath>
	</defs>
	<rect id="Quick View" width="24.000000" height="24.000000" fill="#FFFFFF" fill-opacity="0"/>
	<g clip-path="url(#clip55_353)">
		<path id="Vector" d="M21.25 13.03C19.76 14.98 16.18 19 12 19C7.81 19 4.23 14.98 2.74 13.03C2.51 12.74 2.38 12.37 2.38 12C2.38 11.62 2.51 11.25 2.74 10.96C4.23 9.01 7.81 5 12 5C16.18 5 19.76 9.01 21.25 10.96C21.73 11.58 21.73 12.41 21.25 13.03Z" stroke="#000000" stroke-opacity="1.000000" stroke-width="1.500000" stroke-linejoin="round"/>
		<path id="Vector" d="M12 15C10.34 15 9 13.65 9 12C9 10.34 10.34 9 12 9C13.65 9 15 10.34 15 12C15 13.65 13.65 15 12 15Z" stroke="#000000" stroke-opacity="1.000000" stroke-width="1.500000" stroke-linejoin="round"/>
	</g>
</svg>
